# xmcd
#
# Track frame offsets:
#	150
#	14530
#	29414
#	42271
#	55362
#
# Disc length: 902 seconds
#
# Revision: 0
# Processed by: cddbd v1.5.1PL2 Copyright (c) Steve Scherf et al.
# Submitted via: dBpowerAMP V4.0
#
DISCID=3d038405
DTITLE=Catfish - Promo
DYEAR=1995
DGENRE=Blues
TTITLE0=Sunstreet
TTITLE1=(My brain is so tired) I wanna get out of my head
TTITLE2=Try
TTITLE3=A hangover too
TTITLE4=1909
EXTD=This is a promo-disc, it's very rare. More information about this band at http://www.catfishmusic.be
EXTT0=
EXTT1=
EXTT2=
EXTT3=
EXTT4=
PLAYORDER=
